<mxfile host="Electron" agent="Mozilla/5.0 (Windows NT 10.0; Win64; x64) AppleWebKit/537.36 (KHTML, like Gecko) draw.io/26.0.9 Chrome/128.0.6613.186 Electron/32.2.5 Safari/537.36" version="26.0.9">
  <diagram id="GQL5emznM77aHEf2A6ZU" name="Simple ASP.NET Core on App Service">
    <mxGraphModel dx="794" dy="557" grid="1" gridSize="10" guides="1" tooltips="1" connect="1" arrows="1" fold="1" page="1" pageScale="1" pageWidth="929" pageHeight="1089" math="0" shadow="0">
      <root>
        <mxCell id="0" />
        <mxCell id="1" parent="0" />
        <mxCell id="GDt1RwHZdVcQBbNn4iq2-2" value="" style="rounded=1;whiteSpace=wrap;html=1;fillColor=none;strokeColor=#6C8EBF;" parent="1" vertex="1">
          <mxGeometry x="40" y="99.94" width="590" height="950" as="geometry" />
        </mxCell>
        <mxCell id="GDt1RwHZdVcQBbNn4iq2-14" value="" style="rounded=1;whiteSpace=wrap;html=1;fillColor=none;strokeColor=#d6b656;" parent="1" vertex="1">
          <mxGeometry x="80" y="309.94" width="510" height="700" as="geometry" />
        </mxCell>
        <mxCell id="GDt1RwHZdVcQBbNn4iq2-6" value="" style="rounded=1;whiteSpace=wrap;html=1;fillColor=none;" parent="1" vertex="1">
          <mxGeometry x="710" y="99.94" width="180" height="620.06" as="geometry" />
        </mxCell>
        <mxCell id="GDt1RwHZdVcQBbNn4iq2-1" value="" style="aspect=fixed;html=1;points=[];align=left;image;fontSize=12;image=img/lib/azure2/identity/Azure_Active_Directory.svg;labelPosition=right;verticalLabelPosition=middle;verticalAlign=middle;labelBackgroundColor=default;" parent="1" vertex="1">
          <mxGeometry x="135" y="89.94" width="21.88" height="20" as="geometry" />
        </mxCell>
        <mxCell id="GDt1RwHZdVcQBbNn4iq2-4" value="" style="dashed=0;outlineConnect=0;html=1;align=left;labelPosition=right;verticalLabelPosition=middle;verticalAlign=middle;shape=mxgraph.weblogos.github;labelBackgroundColor=default;strokeColor=#6C8EBF;aspect=fixed;" parent="1" vertex="1">
          <mxGeometry x="740" y="89.94" width="20" height="20" as="geometry" />
        </mxCell>
        <mxCell id="GDt1RwHZdVcQBbNn4iq2-7" value="" style="aspect=fixed;html=1;points=[];align=center;image;fontSize=12;image=img/lib/azure2/identity/App_Registrations.svg;" parent="1" vertex="1">
          <mxGeometry x="220" y="149.94" width="63" height="64" as="geometry" />
        </mxCell>
        <mxCell id="GDt1RwHZdVcQBbNn4iq2-9" style="edgeStyle=orthogonalEdgeStyle;rounded=0;orthogonalLoop=1;jettySize=auto;html=1;entryX=1;entryY=0.5;entryDx=0;entryDy=0;entryPerimeter=0;strokeColor=#6C8EBF;" parent="1" source="GDt1RwHZdVcQBbNn4iq2-8" target="GDt1RwHZdVcQBbNn4iq2-7" edge="1">
          <mxGeometry relative="1" as="geometry" />
        </mxCell>
        <mxCell id="GDt1RwHZdVcQBbNn4iq2-20" style="edgeStyle=orthogonalEdgeStyle;rounded=0;orthogonalLoop=1;jettySize=auto;html=1;entryX=0.808;entryY=-0.001;entryDx=0;entryDy=0;entryPerimeter=0;strokeColor=#6C8EBF;exitX=0.501;exitY=1.002;exitDx=0;exitDy=0;exitPerimeter=0;dashed=1;" parent="1" source="GDt1RwHZdVcQBbNn4iq2-8" target="GDt1RwHZdVcQBbNn4iq2-14" edge="1">
          <mxGeometry relative="1" as="geometry">
            <mxPoint x="571.44" y="379.34" as="targetPoint" />
          </mxGeometry>
        </mxCell>
        <mxCell id="GDt1RwHZdVcQBbNn4iq2-8" value="" style="aspect=fixed;html=1;points=[];align=center;image;fontSize=12;image=img/lib/azure2/identity/Enterprise_Applications.svg;" parent="1" vertex="1">
          <mxGeometry x="460" y="149.94" width="64" height="64" as="geometry" />
        </mxCell>
        <mxCell id="GDt1RwHZdVcQBbNn4iq2-10" value="" style="aspect=fixed;html=1;points=[];align=left;image;fontSize=12;image=img/lib/azure2/general/Subscriptions.svg;labelBackgroundColor=default;strokeColor=#6C8EBF;labelPosition=right;verticalLabelPosition=middle;verticalAlign=middle;" parent="1" vertex="1">
          <mxGeometry x="160" y="299.94" width="12.39" height="20" as="geometry" />
        </mxCell>
        <mxCell id="G6xe0df5_kS4qvGH7aIE-6" style="edgeStyle=orthogonalEdgeStyle;rounded=0;orthogonalLoop=1;jettySize=auto;html=1;entryX=1;entryY=0.25;entryDx=0;entryDy=0;exitX=0;exitY=0.5;exitDx=0;exitDy=0;" parent="1" source="G6xe0df5_kS4qvGH7aIE-1" target="qcm8bVL3Bub1XYBkVCOA-1" edge="1">
          <mxGeometry relative="1" as="geometry">
            <mxPoint x="669.1200000000001" y="411.97999999999996" as="targetPoint" />
          </mxGeometry>
        </mxCell>
        <mxCell id="G6xe0df5_kS4qvGH7aIE-7" style="edgeStyle=orthogonalEdgeStyle;rounded=0;orthogonalLoop=1;jettySize=auto;html=1;" parent="1" source="G6xe0df5_kS4qvGH7aIE-1" target="G6xe0df5_kS4qvGH7aIE-3" edge="1">
          <mxGeometry relative="1" as="geometry" />
        </mxCell>
        <mxCell id="G6xe0df5_kS4qvGH7aIE-1" value="" style="shape=image;verticalLabelPosition=bottom;labelBackgroundColor=default;verticalAlign=top;aspect=fixed;imageAspect=0;image=data:image/svg+xml,PHN2ZyB4bWxuczp4bGluaz0iaHR0cDovL3d3dy53My5vcmcvMTk5OS94bGluayIgeG1sbnM9Imh0dHA6Ly93d3cudzMub3JnLzIwMDAvc3ZnIiBwcmVzZXJ2ZUFzcGVjdFJhdGlvPSJ4TWlkWU1pZCIgdmVyc2lvbj0iMS4xIiB2aWV3Qm94PSI3LjEwNTQyNzM1NzYwMTAwMmUtMTQgMCAyNTYgMjU2IiBoZWlnaHQ9IjI1NiIgd2lkdGg9IjI1NiI+JiN4YTsgICAgPHRpdGxlPkdpdEh1YiBBY3Rpb25zPC90aXRsZT4mI3hhOyAgICA8Zz4mI3hhOwkJCQk8cGF0aCBmaWxsPSIjNEE3RUJGIiBkPSJNNTMuNjAzOTY4NSwwIEM4My4yMDgwMiwwIDEwNy4yMDc5MzcsMjMuOTkyMDk4OCAxMDcuMjA3OTM3LDUzLjU5MDU5ODcgQzEwNy4yMDc5MzcsODIuNjgwNjc1IDg0LjAxODk1MTgsMTA2LjM0MDIzNyA1NS4xMTQ5NTksMTA3LjE0MjcyMiBDNTUuMTE0OTU5LDEwOS42MDQyMjkgNTUuMjIzNjY1OCwxMTQuMjU0MzY5IDU2LjYxNjQ1MjcsMTE3LjA2MjE1IEM1OC41NDg5NDQ1LDEyMC45NTY0IDcwLjE0MDU2MzcsMTI4LjIwNzAzNCA4MS41MDgyNzAyLDEyOC4yMDcwMzQgTDgxLjUwODI3MDIsMTI4LjIwNzAzNCBMODUuNTkyMjUxMiwxMjguMjA3MDM0IEM4OC4xNTg4Mjc1LDEwOS45MzU4NDYgMTAzLjg0ODc1NSw5NS44NzQ5NTUzIDEyMi44MzE4OSw5NS44NzQ5NTUzIEMxNDEuNzM4MDU2LDk1Ljg3NDk1NTMgMTU3LjM4MjE2OCwxMDkuODIxMzM2IDE2MC4wNDMxMjQsMTI3Ljk4NDQyNyBMMTYwLjA0MzEyNCwxMjcuOTg0NDI3IEwxODEuMTcyMjUsMTI3Ljk4NDQyNyBDMTgzLjgzNDEyMywxMDkuODIxMzM2IDE5OS40NzczMTgsOTUuODc0OTU1MyAyMTguMzgzNDg0LDk1Ljg3NDk1NTMgQzIzOS4xNTgsOTUuODc0OTU1MyAyNTUuOTk5NzI1LDExMi43MTE1NjQgMjU1Ljk5OTcyNSwxMzMuNDgxODE0IEMyNTUuOTk5NzI1LDE1NC4yNTExNDkgMjM5LjE1OCwxNzEuMDg3NzU3IDIxOC4zODM0ODQsMTcxLjA4Nzc1NyBDMTk5LjQ3NzMxOCwxNzEuMDg3NzU3IDE4My44MzMyMDYsMTU3LjE0MDQ2MSAxODEuMTcyMjUsMTM4Ljk3NzM3IEwxODEuMTcyMjUsMTM4Ljk3NzM3IEwxNjAuMDQ0MDQsMTM4Ljk3NzM3IEMxNTcuMzgzMDg0LDE1Ny4xNDA0NjEgMTQxLjczODk3MiwxNzEuMDg3NzU3IDEyMi44MzE4OSwxNzEuMDg3NzU3IEMxMDMuOTYxNDYxLDE3MS4wODc3NTcgODguMzM4NDIzNywxNTcuMTk0NTA5IDg1LjYzMzQ4NSwxMzkuMDgwODg3IEw4NS42MzM0ODUsMTM5LjA4MDg4NyBMODEuMTE3OTIzNCwxMzkuMjE1NTUgQzczLjY4MzAwNzEsMTM5LjE1OTY3IDY1LjgyODQ3MjMsMTM3LjE3NDI5MyA1OS41MTk2OTc2LDEzMi44ODc5NjIgQzU3Ljc5OTc4OSwxMzEuNzE5MDQ1IDU2LjEwNTQ4NywxMzAuNDkwODggNTQuMzM3OTMwNSwxMjkuMzI3NDYgTDU0LjMzNzkzMDUsMTI5LjMyNzQ2IEw1NC4zMzc0MTc0LDEzMS43NjkyODQgQzU0LjMyNzc3NjcsMTMyLjU1ODcxNyA1NC4xODUzODE5LDE0NC40MjYxOCA1NC4xNzM5MzcxLDE1Ny42MDI0NzEgTDU0LjE3MzU1MzQsMTYwLjM5MjM4OCBDNTQuMTc4ODk3NCwxNjkuMDMzNDMgNTQuMjQ3MjE2MSwxNzcuOTM3MDk0IDU0LjQ1MDYzNjMsMTg0LjQzMTM1OSBDNTQuODk2ODc3OSwxOTguNjc4MjEzIDY2LjQ4NTQxNDQsMjEwLjE3NjgzMiA3OS4yNzMzOTcxLDIxMi44NjgyNzEgQzgwLjkzNTU3ODIsMjEzLjIxNzI5NyA4My43OTM1NDAyLDIxMy4yNjIxODUgODUuNTk0MDgzOCwyMTMuMTA2NDUxIEM4OC4xNjUyNDE3LDE5NC44NDE2NzYgMTAzLjg1MzMzNiwxODAuNzg2MjgyIDEyMi44MzE4OSwxODAuNzg2MjgyIEMxNDMuNjA2NDA2LDE4MC43ODYyODIgMTYwLjQ0ODEzMSwxOTcuNjIzODA3IDE2MC40NDgxMzEsMjE4LjM5MzE0MSBDMTYwLjQ0ODEzMSwyMzkuMTYyNDc1IDE0My42MDY0MDYsMjU2IDEyMi44MzE4OSwyNTYgQzEwNC4wNjMxNzEsMjU2IDg4LjUwODg1NjksMjQyLjI1NjA3MyA4NS42NzkzMDA0LDIyNC4yODYyNzUgTDg1LjY3OTMwMDQsMjI0LjI4NjI3NSBMODIuNDI1NDkzNywyMjQuMjg2Mjc1IEM1Ny45ODk0MTQ1LDIyMi45NTI0NjQgNDIuNzk3MDQxOSwyMDAuNTM5Njg1IDQzLjA2MTg1NDcsMTgyLjM2Mjg1MyBDNDMuMzk2MzA2OCwxNTkuNDg1NjIyIDQzLjE0NDMyMjMsMTM2LjU5OTIzIDQzLjE0MDY1NzEsMTEzLjcxNjUwMiBMNDMuMTQwNjU3MSwxMTMuNzE2NTAyIEw0My4xNDA2NTcxLDEwNi4xNTI0NDEgQzE4LjU0NjA1NjgsMTAxLjI4NjIzMiA3LjEwNTQyNzM2ZS0xNCw3OS42MDYzMTUyIDcuMTA1NDI3MzZlLTE0LDUzLjU5MDU5ODcgQzcuMTA1NDI3MzZlLTE0LDIzLjk5MjA5ODggMjMuOTk5MDAwNywwIDUzLjYwMzk2ODUsMCBaIE0xMjIuODMxODksMTkxLjc3OTIyNSBDMTA4LjEzMDY1OCwxOTEuNzc5MjI1IDk2LjIxMjI1MTEsMjAzLjY5NDY2IDk2LjIxMjI1MTEsMjE4LjM5MzE0MSBDOTYuMjEyMjUxMSwyMzMuMDkxNjIyIDEwOC4xMzA2NTgsMjQ1LjAwNzA1NyAxMjIuODMxODksMjQ1LjAwNzA1NyBDMTM3LjUzNDAzOCwyNDUuMDA3MDU3IDE0OS40NTI0NDYsMjMzLjA5MTYyMiAxNDkuNDUyNDQ2LDIxOC4zOTMxNDEgQzE0OS40NTI0NDYsMjAzLjY5NDY2IDEzNy41MzQwMzgsMTkxLjc3OTIyNSAxMjIuODMxODksMTkxLjc3OTIyNSBaIE0xMjIuODMxODksMTA2Ljg2Nzg5OSBDMTA4LjEzMDY1OCwxMDYuODY3ODk5IDk2LjIxMjI1MTEsMTE4Ljc4MzMzMyA5Ni4yMTIyNTExLDEzMy40ODE4MTQgQzk2LjIxMjI1MTEsMTQ4LjE3OTM4IDEwOC4xMzA2NTgsMTYwLjA5NDgxNCAxMjIuODMxODksMTYwLjA5NDgxNCBDMTM3LjUzNDAzOCwxNjAuMDk0ODE0IDE0OS40NTI0NDYsMTQ4LjE3OTM4IDE0OS40NTI0NDYsMTMzLjQ4MTgxNCBDMTQ5LjQ1MjQ0NiwxMTguNzgzMzMzIDEzNy41MzQwMzgsMTA2Ljg2Nzg5OSAxMjIuODMxODksMTA2Ljg2Nzg5OSBaIE0yMTguMzgzNDg0LDEwNi44Njc4OTkgQzIwMy42ODEzMzYsMTA2Ljg2Nzg5OSAxOTEuNzYzODQ1LDExOC43ODMzMzMgMTkxLjc2Mzg0NSwxMzMuNDgxODE0IEMxOTEuNzYzODQ1LDE0OC4xNzkzOCAyMDMuNjgxMzM2LDE2MC4wOTQ4MTQgMjE4LjM4MzQ4NCwxNjAuMDk0ODE0IEMyMzMuMDg1NjMyLDE2MC4wOTQ4MTQgMjQ1LjAwNDAzOSwxNDguMTc5MzggMjQ1LjAwNDAzOSwxMzMuNDgxODE0IEMyNDUuMDA0MDM5LDExOC43ODMzMzMgMjMzLjA4NTYzMiwxMDYuODY3ODk5IDIxOC4zODM0ODQsMTA2Ljg2Nzg5OSBaIE0yMzMuNTQ0MDYxLDEyMi4yNzY0MzIgQzIzNS42Mzg3MzksMTI0LjM2NjAwOCAyMzUuNjk2NDY2LDEyNy43MjM0MzYgMjMzLjcxNDQ5NCwxMjkuODgxNzE3IEwyMzMuNTU0MTQsMTMwLjA1MDI3NiBMMjE3LjI0NDc4OSwxNDYuMzk0OTUgQzIxNS4xNjY2MDQsMTQ4LjQ3ODExMyAyMTEuODMwMzMsMTQ4LjU0NzczNSAyMDkuNjY3ODQ1LDE0Ni41OTI4MjMgTDIwOS40OTU1NzksMTQ2LjQyOTc2MSBMMjAxLjUxMDg3OSwxMzguNTY5ODA3IEMxOTkuMzQ3NDc4LDEzNi40Mzk5MjQgMTk5LjMxOTk4OCwxMzIuOTU5NzQxIDIwMS40NTA0MDMsMTMwLjc5Njg4IEMyMDMuNTI2NzU1LDEyOC42ODg5ODMgMjA2Ljg4NDEwNCwxMjguNjA5Mjg0IDIwOS4wNTY2NjgsMTMwLjU3NzAyMSBMMjA5LjIyNTI2OSwxMzAuNzM3MzM0IEwyMTMuMzE3NDk2LDEzNC43NjQ0MTYgTDIyNS43NjkxOTQsMTIyLjI4NjUwOSBDMjI3LjkxMzM1MywxMjAuMTM2NDczIDIzMS4zOTQ0MDQsMTIwLjEzMjgwOCAyMzMuNTQ0MDYxLDEyMi4yNzY0MzIgWiBNMTM3LjU1NDE5NywxMjIuMTk1OTA5IEMxMzkuNjQ4ODc1LDEyNC4yODU0ODQgMTM5LjcwNjYwMywxMjcuNjQyOTEzIDEzNy43MjQ2MywxMjkuODAyMTEgTDEzNy41NjQyNzcsMTI5Ljk2OTc1MiBMMTIxLjI1NDkyNiwxNDYuMzE0NDI3IEMxMTkuMTc2NzQxLDE0OC4zOTc1OSAxMTUuODQwNDY3LDE0OC40NjcyMTIgMTEzLjY3Nzk4MiwxNDYuNTEyMyBMMTEzLjUwNTcxNiwxNDYuMzQ5MjM4IEwxMDUuNTIxMDE1LDEzOC40ODkyODMgQzEwMy4zNTc2MTQsMTM2LjM1OTQwMSAxMDMuMzMwMTI1LDEzMi44NzkyMTggMTA1LjQ2MDUzOSwxMzAuNzE2MzU2IEMxMDcuNTM1OTc1LDEyOC42MDg0NTkgMTEwLjg5NDI0MSwxMjguNTI4NzYxIDExMy4wNjY4MDUsMTMwLjQ5NzQxNCBMMTEzLjIzNTQwNSwxMzAuNjU2ODExIEwxMTcuMzI3NjMzLDEzNC42ODM4OTMgTDEyOS43NzkzMzEsMTIyLjIwNTk4NiBDMTMxLjkyMzQ5LDEyMC4wNTY4NjYgMTM1LjQwNDU0MSwxMjAuMDUyMjg1IDEzNy41NTQxOTcsMTIyLjE5NTkwOSBaIE01My42MDM5Njg1LDEwLjk5Mjk0MzMgQzMwLjA3MjI4NDUsMTAuOTkyOTQzMyAxMC45OTU2ODU4LDMwLjA2Mzg2NzkgMTAuOTk1Njg1OCw1My41OTA1OTg3IEMxMC45OTU2ODU4LDc3LjExNjQxMzYgMzAuMDcyMjg0NSw5Ni4xODgyNTQyIDUzLjYwMzk2ODUsOTYuMTg4MjU0MiBDNzcuMTM1NjUyNSw5Ni4xODgyNTQyIDk2LjIxMjI1MTEsNzcuMTE2NDEzNiA5Ni4yMTIyNTExLDUzLjU5MDU5ODcgQzk2LjIxMjI1MTEsMzAuMDYzODY3OSA3Ny4xMzU2NTI1LDEwLjk5Mjk0MzMgNTMuNjAzOTY4NSwxMC45OTI5NDMzIFogTTQ5LjE3MDU5OTYsMjguMTMwMzkyMyBDNTguMTM0ODMyNSwzMy41MTYwMTg1IDY2Ljk3ODExMjgsMzkuMDg2NjkyNSA3NS43MDEzNTY5LDQ0Ljg0MTQ5ODQgQzgzLjAwODkwNjQsNDkuNjYxOTA0IDgyLjk5MDU4MDMsNTguNDA0MDQyMiA3NS42MDE0Nzk0LDYzLjIzNTQ0MDggQzY2LjcyMjQ2MzEsNjkuMDQ1MjExMyA1Ny43MDIzMzU1LDc0LjYxNTg4NTQgNDguNTQyOTI5Miw3OS45NDc0NjI5IEM0MS4wODc4NTQyLDg0LjI4NjkyNzMgMzIuNzQzMDQ0OSw3OS4yOTcwNDcxIDMyLjU0MDU0MSw3MC42MDM0NjExIEMzMi40MTA0MjU0LDY1LjAwMDcyNDMgMzIuNTE2NzE3MSw1OS4zOTI0OTEgMzIuNTA5Mzg2Niw1My43ODYwODk5IEMzMi41MDI5NzI1LDQ4LjMzMTc1NzkgMzIuMzk1NzY0NSw0Mi44NzQ2Nzc2IDMyLjUyNzcxMjcsMzcuNDIzMDkzOCBDMzIuNzUwMzc1NCwyOC4xNzUyODAyIDQxLjI2Mzc4NTEsMjMuMzU2NzA2NyA0OS4xNzA1OTk2LDI4LjEzMDM5MjMgWiBNNDMuMjYxMzM0NywzNy4wMDE2OTc2IEw0My4yNjEzMzQ3LDQwLjg3MDI5NzYgQzQzLjI2MDQxODQsNDIuNzg1ODE4IDQzLjI2MDQxODQsNDQuNjc1Njg4MSA0My4yNTk1MDIxLDQ2LjU0NDQ4ODUgTDQzLjI1ODU4NTgsNTAuMjU0NjA2OSBMNDMuMjU4NTg1OCw1NS43MzU1MDUyIEM0My4yNTk1MDIxLDU5Ljk2NTk1NjIgNDMuMjYxMzM0Nyw2NC4xMjk1MzM1IDQzLjI2ODY2NTIsNjguMjkzMTEwOCBDNDMuMjcyMzMwNCw3MC4yNTI2MDMgNDQuMjkyMTgwMyw3MC4xNzI5MDQxIDQ1LjYxMTY2MjYsNjkuMzU1NzYyIEM1My4yMTcwMTIsNjQuNjQxNjIxNSA2MC44MjYwMjY2LDU5LjkzMjk3NzQgNjguNDM4NzA2NCw1NS4yMjg5MTM3IEM2OS42OTY3OTYxLDU0LjQ1Mjk5NTEgNjkuNzMyNTMyMSw1My42NDIyNjU2IDY4LjQ5ODI2NjQsNTIuODYzNTk4OCBDNjAuMzQ0OTY1Myw0Ny43MjUzMTM4IDUyLjE4MDY2ODYsNDIuNjA0NDM0NCA0My4yNjEzMzQ3LDM3LjAwMTY5NzYgWiIvPiYjeGE7CQkJCTxwYXRoIGZpbGw9IiM4NUIzREYiIGQ9Ik0xMzMuMjI3MTIsMjIzLjg3OTA3OCBDMTM2LjI2Mjg0NiwyMjMuODc5MDc4IDEzOC43MjQ5NjMsMjIxLjQxODQ5IDEzOC43MjQ5NjMsMjE4LjM4MjYwNiBDMTM4LjcyNDk2MywyMTUuMzQ3NjM4IDEzNi4yNjI4NDYsMjEyLjg4NjEzNCAxMzMuMjI3MTIsMjEyLjg4NjEzNCBDMTMwLjE5MTM5NCwyMTIuODg2MTM0IDEyNy43MjkyNzcsMjE1LjM0NzYzOCAxMjcuNzI5Mjc3LDIxOC4zODI2MDYgQzEyNy43MjkyNzcsMjIxLjQxODQ5IDEzMC4xOTEzOTQsMjIzLjg3OTA3OCAxMzMuMjI3MTIsMjIzLjg3OTA3OCIvPiYjeGE7CQkJCTxwYXRoIGZpbGw9IiM4NUIzREYiIGQ9Ik0xMTIuMTc4OTAzLDIyMy44NzkwNzggQzExNS4yMTQ2MjksMjIzLjg3OTA3OCAxMTcuNjc2NzQ2LDIyMS40MTg0OSAxMTcuNjc2NzQ2LDIxOC4zODI2MDYgQzExNy42NzY3NDYsMjE1LjM0NzYzOCAxMTUuMjE0NjI5LDIxMi44ODYxMzQgMTEyLjE3ODkwMywyMTIuODg2MTM0IEMxMDkuMTQzMTc4LDIxMi44ODYxMzQgMTA2LjY4MTA2LDIxNS4zNDc2MzggMTA2LjY4MTA2LDIxOC4zODI2MDYgQzEwNi42ODEwNiwyMjEuNDE4NDkgMTA5LjE0MzE3OCwyMjMuODc5MDc4IDExMi4xNzg5MDMsMjIzLjg3OTA3OCIvPiYjeGE7CQkJCTxwYXRoIGZpbGw9IiM4NUIzREYiIGQ9Ik0yMTguMzgzNzU5LDI0NS4wMDcwNTcgQzIwMy42ODE2MSwyNDUuMDA3MDU3IDE5MS43NjQxMiwyMzMuMDkxNjIyIDE5MS43NjQxMiwyMTguMzkzMTQxIEMxOTEuNzY0MTIsMjAzLjY5NDY2IDIwMy42ODE2MSwxOTEuNzc5MjI1IDIxOC4zODM3NTksMTkxLjc3OTIyNSBDMjMzLjA4NDk5MSwxOTEuNzc5MjI1IDI0NS4wMDQzMTQsMjAzLjY5NDY2IDI0NS4wMDQzMTQsMjE4LjM5MzE0MSBDMjQ1LjAwNDMxNCwyMzMuMDkxNjIyIDIzMy4wODQ5OTEsMjQ1LjAwNzA1NyAyMTguMzgzNzU5LDI0NS4wMDcwNTcgTTIxOC4zODM3NTksMTgwLjc4NjI4MiBDMTk5LjQ3NzU5MywxODAuNzg2MjgyIDE4My44MzM0ODEsMTk0LjczMzU3OSAxODEuMTcyNTI1LDIxMi44OTY2NjkgTDE3NS4wMjA0MzksMjEyLjg5NjY2OSBDMTcyLjMzNDc0MywyMTIuODk2NjY5IDE3MC4xNTU3NjQsMjE1LjM1ODE3MiAxNzAuMTU1NzY0LDIxOC4zOTMxNDEgQzE3MC4xNTU3NjQsMjIxLjQyOTAyNSAxNzIuMzM0NzQzLDIyMy44ODk2MTMgMTc1LjAyMDQzOSwyMjMuODg5NjEzIEwxODEuMTcyNTI1LDIyMy44ODk2MTMgQzE4My44MzM0ODEsMjQyLjA1MjcwMyAxOTkuNDc3NTkzLDI1NiAyMTguMzgzNzU5LDI1NiBDMjM5LjE1ODI3NSwyNTYgMjU2LDIzOS4xNjI0NzUgMjU2LDIxOC4zOTMxNDEgQzI1NiwxOTcuNjIzODA3IDIzOS4xNTgyNzUsMTgwLjc4NjI4MiAyMTguMzgzNzU5LDE4MC43ODYyODIiLz4mI3hhOyAgICA8L2c+JiN4YTs8L3N2Zz4=;" parent="1" vertex="1">
          <mxGeometry x="770" y="352" width="64" height="64" as="geometry" />
        </mxCell>
        <mxCell id="G6xe0df5_kS4qvGH7aIE-5" style="edgeStyle=orthogonalEdgeStyle;rounded=0;orthogonalLoop=1;jettySize=auto;html=1;entryX=0.504;entryY=0.003;entryDx=0;entryDy=0;entryPerimeter=0;exitX=0.5;exitY=0;exitDx=0;exitDy=0;" parent="1" source="G6xe0df5_kS4qvGH7aIE-3" target="GDt1RwHZdVcQBbNn4iq2-7" edge="1">
          <mxGeometry relative="1" as="geometry">
            <Array as="points">
              <mxPoint x="802" y="29.939999999999998" />
              <mxPoint x="252" y="29.939999999999998" />
            </Array>
          </mxGeometry>
        </mxCell>
        <mxCell id="G6xe0df5_kS4qvGH7aIE-3" value="" style="shape=image;html=1;verticalAlign=top;verticalLabelPosition=bottom;labelBackgroundColor=#ffffff;imageAspect=0;aspect=fixed;image=https://cdn2.iconfinder.com/data/icons/font-awesome/1792/openid-128.png" parent="1" vertex="1">
          <mxGeometry x="770" y="149.94" width="64" height="64" as="geometry" />
        </mxCell>
        <mxCell id="qcm8bVL3Bub1XYBkVCOA-1" value="" style="rounded=1;whiteSpace=wrap;html=1;fillColor=none;" vertex="1" parent="1">
          <mxGeometry x="410" y="349.94" width="140" height="140" as="geometry" />
        </mxCell>
        <mxCell id="qcm8bVL3Bub1XYBkVCOA-2" value="" style="shape=image;verticalLabelPosition=bottom;labelBackgroundColor=default;verticalAlign=top;aspect=fixed;imageAspect=0;editableCssRules=.*;image=data:image/svg+xml,PHN2ZyB4bWxucz0iaHR0cDovL3d3dy53My5vcmcvMjAwMC9zdmciIGhlaWdodD0iNTciIHdpZHRoPSI1OCIgdmlld0JveD0iMCAwIDU4IDU3IiB2ZXJzaW9uPSIxLjIiPiYjeGE7CTx0aXRsZT5OZW9uIExvZ29tYXJrIENvbG9yLCBMaWdodCBCYWNrZ3JvdW5kIC0gaHR0cHM6Ly9uZW9uLnRlY2g8L3RpdGxlPiYjeGE7CTxkZWZzPiYjeGE7CQk8bGluZWFyR3JhZGllbnQgZ3JhZGllbnRUcmFuc2Zvcm09Im1hdHJpeCgtNTAuMDMyLC01Ny42NTIsNjIuNDY2LC01NC4yMSw1Ny41ODgsNTcpIiBncmFkaWVudFVuaXRzPSJ1c2VyU3BhY2VPblVzZSIgeDI9IjEiIGlkPSJnMSI+JiN4YTsJCQk8c3RvcCBzdG9wLW9wYWNpdHk9IjEiIHN0b3AtY29sb3I9IiMyZWY1MWMiIG9mZnNldD0iMCIvPiYjeGE7CQkJPHN0b3Agc3RvcC1vcGFjaXR5PSIwIiBzdG9wLWNvbG9yPSIjMmVmNTFjIiBvZmZzZXQ9IjEiLz4mI3hhOwkJPC9saW5lYXJHcmFkaWVudD4mI3hhOwkJPGxpbmVhckdyYWRpZW50IGdyYWRpZW50VHJhbnNmb3JtPSJtYXRyaXgoLTM0LjAxMSwtMTMuNDA0LDEzLjgxMiwtMzUuMDQ2LDU3LjQ2MSw1Ni45NjYpIiBncmFkaWVudFVuaXRzPSJ1c2VyU3BhY2VPblVzZSIgeDI9IjEiIGlkPSJnMiI+JiN4YTsJCQk8c3RvcCBzdG9wLW9wYWNpdHk9Ii45IiBzdG9wLWNvbG9yPSIjMDAwMDAwIiBvZmZzZXQ9IjAiLz4mI3hhOwkJCTxzdG9wIHN0b3Atb3BhY2l0eT0iMCIgc3RvcC1jb2xvcj0iIzFhMWExYSIgb2Zmc2V0PSIxIi8+JiN4YTsJCTwvbGluZWFyR3JhZGllbnQ+JiN4YTsJPC9kZWZzPiYjeGE7CTxzdHlsZT4mI3hhOwkJLnMwIHsgZmlsbDogIzMyYzBlZCB9ICYjeGE7CQkuczEgeyBmaWxsOiB1cmwoI2cxKSB9ICYjeGE7CQkuczIgeyBvcGFjaXR5OiAuMztmaWxsOiB1cmwoI2cyKSB9ICYjeGE7CQkuczMgeyBmaWxsOiAjNjNmNjU1IH0gJiN4YTsJPC9zdHlsZT4mI3hhOwk8cGF0aCBkPSJtMCA5LjhjMC01LjQgNC40LTkuOCA5LjktOS44aDM3LjdjNS40IDAgOS45IDQuNCA5LjkgOS44djMxLjhjMCA1LjYtNy4yIDgtMTAuNyAzLjZsLTEwLjgtMTMuOXYxNi45YzAgNC44LTQgOC44LTkgOC44aC0xNy4xYy01LjUgMC05LjktNC40LTkuOS05Ljh6bTkuOS0yYy0xLjEgMC0yIDAuOS0yIDJ2MzcuM2MwIDEuMSAwLjkgMiAyIDJoMTcuNGMwLjYgMCAwLjctMC41IDAuNy0xdi0yMi41YzAtNS43IDcuMi04LjEgMTAuNy0zLjdsMTAuOCAxMy45di0yNmMwLTEuMSAwLjEtMi0xLTJ6IiBjbGFzcz0iczAiIGZpbGwtcnVsZT0iZXZlbm9kZCIvPiYjeGE7CTxwYXRoIGQ9Im0wIDkuOGMwLTUuNCA0LjQtOS44IDkuOS05LjhoMzcuN2M1LjQgMCA5LjkgNC40IDkuOSA5Ljh2MzEuOGMwIDUuNi03LjIgOC0xMC43IDMuNmwtMTAuOC0xMy45djE2LjljMCA0LjgtNCA4LjgtOSA4LjhoLTE3LjFjLTUuNSAwLTkuOS00LjQtOS45LTkuOHptOS45LTJjLTEuMSAwLTIgMC45LTIgMnYzNy4zYzAgMS4xIDAuOSAyIDIgMmgxNy40YzAuNiAwIDAuNy0wLjUgMC43LTF2LTIyLjVjMC01LjcgNy4yLTguMSAxMC43LTMuN2wxMC44IDEzLjl2LTI2YzAtMS4xIDAuMS0yLTEtMnoiIGNsYXNzPSJzMSIgZmlsbC1ydWxlPSJldmVub2RkIi8+JiN4YTsJPHBhdGggZD0ibTAgOS44YzAtNS40IDQuNC05LjggOS45LTkuOGgzNy43YzUuNCAwIDkuOSA0LjQgOS45IDkuOHYzMS44YzAgNS42LTcuMiA4LTEwLjcgMy42bC0xMC44LTEzLjl2MTYuOWMwIDQuOC00IDguOC05IDguOGgtMTcuMWMtNS41IDAtOS45LTQuNC05LjktOS44em05LjktMmMtMS4xIDAtMiAwLjktMiAydjM3LjNjMCAxLjEgMC45IDIgMiAyaDE3LjRjMC42IDAgMC43LTAuNSAwLjctMXYtMjIuNWMwLTUuNyA3LjItOC4xIDEwLjctMy43bDEwLjggMTMuOXYtMjZjMC0xLjEgMC4xLTItMS0yeiIgY2xhc3M9InMyIiBmaWxsLXJ1bGU9ImV2ZW5vZGQiLz4mI3hhOwk8cGF0aCBkPSJtNDcuNiAwYzUuNCAwIDkuOSA0LjQgOS45IDkuOHYzMS44YzAgNS42LTcuMiA4LTEwLjcgMy42bC0xMC44LTEzLjl2MTYuOWMwIDQuOC00IDguOC05IDguOCAwLjYgMCAxLTAuNCAxLTF2LTMwLjRjMC01LjYgNy4yLTggMTAuNy0zLjZsMTAuOCAxMy45di0zMy45YzAtMS4xLTAuOS0yLTEuOS0yeiIgY2xhc3M9InMzIi8+JiN4YTs8L3N2Zz4=;" vertex="1" parent="1">
          <mxGeometry x="450" y="389.94" width="64" height="62.9" as="geometry" />
        </mxCell>
        <mxCell id="qcm8bVL3Bub1XYBkVCOA-3" value="" style="sketch=0;aspect=fixed;html=1;points=[];align=left;image;fontSize=12;image=img/lib/mscae/ResourceGroup.svg;labelBackgroundColor=default;fillColor=none;verticalAlign=middle;labelPosition=right;verticalLabelPosition=middle;imageBackground=default;" vertex="1" parent="1">
          <mxGeometry x="435" y="339.94" width="25" height="20" as="geometry" />
        </mxCell>
        <mxCell id="qcm8bVL3Bub1XYBkVCOA-4" value="" style="rounded=1;whiteSpace=wrap;html=1;fillColor=none;" vertex="1" parent="1">
          <mxGeometry x="120" y="529.94" width="430" height="440" as="geometry" />
        </mxCell>
        <mxCell id="qcm8bVL3Bub1XYBkVCOA-5" value="" style="sketch=0;aspect=fixed;html=1;points=[];align=left;image;fontSize=12;image=img/lib/mscae/ResourceGroup.svg;labelBackgroundColor=default;fillColor=none;verticalAlign=middle;labelPosition=right;verticalLabelPosition=middle;imageBackground=default;" vertex="1" parent="1">
          <mxGeometry x="190" y="519.94" width="25" height="20" as="geometry" />
        </mxCell>
        <mxCell id="qcm8bVL3Bub1XYBkVCOA-6" value="" style="aspect=fixed;html=1;points=[];align=center;image;fontSize=12;image=img/lib/azure2/app_services/App_Service_Plans.svg;labelBackgroundColor=none;fillColor=none;" vertex="1" parent="1">
          <mxGeometry x="160" y="869.94" width="64" height="64" as="geometry" />
        </mxCell>
        <mxCell id="qcm8bVL3Bub1XYBkVCOA-7" style="edgeStyle=orthogonalEdgeStyle;rounded=0;orthogonalLoop=1;jettySize=auto;html=1;entryX=0.495;entryY=0.019;entryDx=0;entryDy=0;entryPerimeter=0;fillColor=#f5f5f5;strokeColor=#666666;dashed=1;" edge="1" parent="1" source="qcm8bVL3Bub1XYBkVCOA-8" target="qcm8bVL3Bub1XYBkVCOA-6">
          <mxGeometry relative="1" as="geometry" />
        </mxCell>
        <mxCell id="qcm8bVL3Bub1XYBkVCOA-8" value="" style="aspect=fixed;html=1;points=[];align=center;image;fontSize=12;image=img/lib/azure2/compute/App_Services.svg;" vertex="1" parent="1">
          <mxGeometry x="160" y="719.94" width="64" height="64" as="geometry" />
        </mxCell>
        <mxCell id="qcm8bVL3Bub1XYBkVCOA-9" value="" style="aspect=fixed;html=1;points=[];align=center;image;fontSize=12;image=img/lib/azure2/containers/Container_Registries.svg;" vertex="1" parent="1">
          <mxGeometry x="301" y="721.44" width="68" height="61" as="geometry" />
        </mxCell>
        <mxCell id="qcm8bVL3Bub1XYBkVCOA-10" style="edgeStyle=orthogonalEdgeStyle;rounded=0;orthogonalLoop=1;jettySize=auto;html=1;entryX=0;entryY=0.5;entryDx=0;entryDy=0;entryPerimeter=0;dashed=1;exitX=1;exitY=0.5;exitDx=0;exitDy=0;exitPerimeter=0;" edge="1" parent="1" source="qcm8bVL3Bub1XYBkVCOA-8" target="qcm8bVL3Bub1XYBkVCOA-9">
          <mxGeometry relative="1" as="geometry">
            <mxPoint x="630" y="1000.44" as="sourcePoint" />
            <Array as="points">
              <mxPoint x="240" y="751.94" />
              <mxPoint x="240" y="751.94" />
            </Array>
          </mxGeometry>
        </mxCell>
        <mxCell id="qcm8bVL3Bub1XYBkVCOA-11" style="edgeStyle=orthogonalEdgeStyle;rounded=0;orthogonalLoop=1;jettySize=auto;html=1;entryX=0.503;entryY=1;entryDx=0;entryDy=0;entryPerimeter=0;strokeColor=#6C8EBF;exitX=0.5;exitY=0;exitDx=0;exitDy=0;exitPerimeter=0;" edge="1" parent="1" source="qcm8bVL3Bub1XYBkVCOA-8" target="qcm8bVL3Bub1XYBkVCOA-14">
          <mxGeometry relative="1" as="geometry">
            <mxPoint x="658.3" y="969.94" as="sourcePoint" />
            <Array as="points">
              <mxPoint x="192" y="679.94" />
              <mxPoint x="192" y="679.94" />
            </Array>
          </mxGeometry>
        </mxCell>
        <mxCell id="qcm8bVL3Bub1XYBkVCOA-12" style="edgeStyle=orthogonalEdgeStyle;rounded=0;orthogonalLoop=1;jettySize=auto;html=1;entryX=0.498;entryY=-0.002;entryDx=0;entryDy=0;entryPerimeter=0;strokeColor=#6C8EBF;dashed=1;exitX=1.003;exitY=0.754;exitDx=0;exitDy=0;exitPerimeter=0;" edge="1" parent="1" source="qcm8bVL3Bub1XYBkVCOA-14" target="qcm8bVL3Bub1XYBkVCOA-9">
          <mxGeometry relative="1" as="geometry" />
        </mxCell>
        <mxCell id="qcm8bVL3Bub1XYBkVCOA-14" value="" style="sketch=0;aspect=fixed;html=1;points=[];align=center;image;fontSize=12;image=img/lib/mscae/Managed_Identities.svg;" vertex="1" parent="1">
          <mxGeometry x="168.82" y="569.94" width="46.36" height="61" as="geometry" />
        </mxCell>
        <mxCell id="qcm8bVL3Bub1XYBkVCOA-15" value="" style="image;aspect=fixed;html=1;points=[];align=center;fontSize=12;image=img/lib/azure2/security/Key_Vaults.svg;" vertex="1" parent="1">
          <mxGeometry x="450" y="719.94" width="64" height="64" as="geometry" />
        </mxCell>
        <mxCell id="qcm8bVL3Bub1XYBkVCOA-16" style="edgeStyle=orthogonalEdgeStyle;rounded=0;orthogonalLoop=1;jettySize=auto;html=1;entryX=0.5;entryY=1;entryDx=0;entryDy=0;entryPerimeter=0;dashed=1;exitX=1;exitY=0.75;exitDx=0;exitDy=0;exitPerimeter=0;" edge="1" parent="1" source="qcm8bVL3Bub1XYBkVCOA-8" target="qcm8bVL3Bub1XYBkVCOA-15">
          <mxGeometry relative="1" as="geometry">
            <mxPoint x="194" y="761.94" as="sourcePoint" />
            <Array as="points">
              <mxPoint x="260" y="767.94" />
              <mxPoint x="260" y="809.94" />
              <mxPoint x="482" y="809.94" />
            </Array>
            <mxPoint x="271" y="761.94" as="targetPoint" />
          </mxGeometry>
        </mxCell>
        <mxCell id="qcm8bVL3Bub1XYBkVCOA-17" style="edgeStyle=orthogonalEdgeStyle;rounded=0;orthogonalLoop=1;jettySize=auto;html=1;entryX=0.5;entryY=0;entryDx=0;entryDy=0;entryPerimeter=0;strokeColor=#6C8EBF;dashed=1;exitX=1.003;exitY=0.251;exitDx=0;exitDy=0;exitPerimeter=0;" edge="1" parent="1" source="qcm8bVL3Bub1XYBkVCOA-14" target="qcm8bVL3Bub1XYBkVCOA-15">
          <mxGeometry relative="1" as="geometry">
            <mxPoint x="320" y="609.94" as="sourcePoint" />
            <mxPoint x="440" y="714.94" as="targetPoint" />
          </mxGeometry>
        </mxCell>
        <mxCell id="qcm8bVL3Bub1XYBkVCOA-20" style="edgeStyle=orthogonalEdgeStyle;rounded=0;orthogonalLoop=1;jettySize=auto;html=1;entryX=1;entryY=0.5;entryDx=0;entryDy=0;" edge="1" parent="1" source="qcm8bVL3Bub1XYBkVCOA-19" target="qcm8bVL3Bub1XYBkVCOA-2">
          <mxGeometry relative="1" as="geometry">
            <Array as="points">
              <mxPoint x="670" y="492" />
              <mxPoint x="670" y="421" />
            </Array>
          </mxGeometry>
        </mxCell>
        <mxCell id="qcm8bVL3Bub1XYBkVCOA-21" style="edgeStyle=orthogonalEdgeStyle;rounded=0;orthogonalLoop=1;jettySize=auto;html=1;entryX=1;entryY=0.75;entryDx=0;entryDy=0;" edge="1" parent="1" source="qcm8bVL3Bub1XYBkVCOA-19" target="G6xe0df5_kS4qvGH7aIE-3">
          <mxGeometry relative="1" as="geometry">
            <Array as="points">
              <mxPoint x="860" y="492" />
              <mxPoint x="860" y="198" />
            </Array>
          </mxGeometry>
        </mxCell>
        <mxCell id="qcm8bVL3Bub1XYBkVCOA-19" value="" style="shape=image;verticalLabelPosition=bottom;labelBackgroundColor=default;verticalAlign=top;aspect=fixed;imageAspect=0;image=data:image/svg+xml,PHN2ZyB4bWxuczp4bGluaz0iaHR0cDovL3d3dy53My5vcmcvMTk5OS94bGluayIgeG1sbnM9Imh0dHA6Ly93d3cudzMub3JnLzIwMDAvc3ZnIiBwcmVzZXJ2ZUFzcGVjdFJhdGlvPSJ4TWlkWU1pZCIgdmVyc2lvbj0iMS4xIiB2aWV3Qm94PSI3LjEwNTQyNzM1NzYwMTAwMmUtMTQgMCAyNTYgMjU2IiBoZWlnaHQ9IjI1NiIgd2lkdGg9IjI1NiI+JiN4YTsgICAgPHRpdGxlPkdpdEh1YiBBY3Rpb25zPC90aXRsZT4mI3hhOyAgICA8Zz4mI3hhOwkJCQk8cGF0aCBmaWxsPSIjNEE3RUJGIiBkPSJNNTMuNjAzOTY4NSwwIEM4My4yMDgwMiwwIDEwNy4yMDc5MzcsMjMuOTkyMDk4OCAxMDcuMjA3OTM3LDUzLjU5MDU5ODcgQzEwNy4yMDc5MzcsODIuNjgwNjc1IDg0LjAxODk1MTgsMTA2LjM0MDIzNyA1NS4xMTQ5NTksMTA3LjE0MjcyMiBDNTUuMTE0OTU5LDEwOS42MDQyMjkgNTUuMjIzNjY1OCwxMTQuMjU0MzY5IDU2LjYxNjQ1MjcsMTE3LjA2MjE1IEM1OC41NDg5NDQ1LDEyMC45NTY0IDcwLjE0MDU2MzcsMTI4LjIwNzAzNCA4MS41MDgyNzAyLDEyOC4yMDcwMzQgTDgxLjUwODI3MDIsMTI4LjIwNzAzNCBMODUuNTkyMjUxMiwxMjguMjA3MDM0IEM4OC4xNTg4Mjc1LDEwOS45MzU4NDYgMTAzLjg0ODc1NSw5NS44NzQ5NTUzIDEyMi44MzE4OSw5NS44NzQ5NTUzIEMxNDEuNzM4MDU2LDk1Ljg3NDk1NTMgMTU3LjM4MjE2OCwxMDkuODIxMzM2IDE2MC4wNDMxMjQsMTI3Ljk4NDQyNyBMMTYwLjA0MzEyNCwxMjcuOTg0NDI3IEwxODEuMTcyMjUsMTI3Ljk4NDQyNyBDMTgzLjgzNDEyMywxMDkuODIxMzM2IDE5OS40NzczMTgsOTUuODc0OTU1MyAyMTguMzgzNDg0LDk1Ljg3NDk1NTMgQzIzOS4xNTgsOTUuODc0OTU1MyAyNTUuOTk5NzI1LDExMi43MTE1NjQgMjU1Ljk5OTcyNSwxMzMuNDgxODE0IEMyNTUuOTk5NzI1LDE1NC4yNTExNDkgMjM5LjE1OCwxNzEuMDg3NzU3IDIxOC4zODM0ODQsMTcxLjA4Nzc1NyBDMTk5LjQ3NzMxOCwxNzEuMDg3NzU3IDE4My44MzMyMDYsMTU3LjE0MDQ2MSAxODEuMTcyMjUsMTM4Ljk3NzM3IEwxODEuMTcyMjUsMTM4Ljk3NzM3IEwxNjAuMDQ0MDQsMTM4Ljk3NzM3IEMxNTcuMzgzMDg0LDE1Ny4xNDA0NjEgMTQxLjczODk3MiwxNzEuMDg3NzU3IDEyMi44MzE4OSwxNzEuMDg3NzU3IEMxMDMuOTYxNDYxLDE3MS4wODc3NTcgODguMzM4NDIzNywxNTcuMTk0NTA5IDg1LjYzMzQ4NSwxMzkuMDgwODg3IEw4NS42MzM0ODUsMTM5LjA4MDg4NyBMODEuMTE3OTIzNCwxMzkuMjE1NTUgQzczLjY4MzAwNzEsMTM5LjE1OTY3IDY1LjgyODQ3MjMsMTM3LjE3NDI5MyA1OS41MTk2OTc2LDEzMi44ODc5NjIgQzU3Ljc5OTc4OSwxMzEuNzE5MDQ1IDU2LjEwNTQ4NywxMzAuNDkwODggNTQuMzM3OTMwNSwxMjkuMzI3NDYgTDU0LjMzNzkzMDUsMTI5LjMyNzQ2IEw1NC4zMzc0MTc0LDEzMS43NjkyODQgQzU0LjMyNzc3NjcsMTMyLjU1ODcxNyA1NC4xODUzODE5LDE0NC40MjYxOCA1NC4xNzM5MzcxLDE1Ny42MDI0NzEgTDU0LjE3MzU1MzQsMTYwLjM5MjM4OCBDNTQuMTc4ODk3NCwxNjkuMDMzNDMgNTQuMjQ3MjE2MSwxNzcuOTM3MDk0IDU0LjQ1MDYzNjMsMTg0LjQzMTM1OSBDNTQuODk2ODc3OSwxOTguNjc4MjEzIDY2LjQ4NTQxNDQsMjEwLjE3NjgzMiA3OS4yNzMzOTcxLDIxMi44NjgyNzEgQzgwLjkzNTU3ODIsMjEzLjIxNzI5NyA4My43OTM1NDAyLDIxMy4yNjIxODUgODUuNTk0MDgzOCwyMTMuMTA2NDUxIEM4OC4xNjUyNDE3LDE5NC44NDE2NzYgMTAzLjg1MzMzNiwxODAuNzg2MjgyIDEyMi44MzE4OSwxODAuNzg2MjgyIEMxNDMuNjA2NDA2LDE4MC43ODYyODIgMTYwLjQ0ODEzMSwxOTcuNjIzODA3IDE2MC40NDgxMzEsMjE4LjM5MzE0MSBDMTYwLjQ0ODEzMSwyMzkuMTYyNDc1IDE0My42MDY0MDYsMjU2IDEyMi44MzE4OSwyNTYgQzEwNC4wNjMxNzEsMjU2IDg4LjUwODg1NjksMjQyLjI1NjA3MyA4NS42NzkzMDA0LDIyNC4yODYyNzUgTDg1LjY3OTMwMDQsMjI0LjI4NjI3NSBMODIuNDI1NDkzNywyMjQuMjg2Mjc1IEM1Ny45ODk0MTQ1LDIyMi45NTI0NjQgNDIuNzk3MDQxOSwyMDAuNTM5Njg1IDQzLjA2MTg1NDcsMTgyLjM2Mjg1MyBDNDMuMzk2MzA2OCwxNTkuNDg1NjIyIDQzLjE0NDMyMjMsMTM2LjU5OTIzIDQzLjE0MDY1NzEsMTEzLjcxNjUwMiBMNDMuMTQwNjU3MSwxMTMuNzE2NTAyIEw0My4xNDA2NTcxLDEwNi4xNTI0NDEgQzE4LjU0NjA1NjgsMTAxLjI4NjIzMiA3LjEwNTQyNzM2ZS0xNCw3OS42MDYzMTUyIDcuMTA1NDI3MzZlLTE0LDUzLjU5MDU5ODcgQzcuMTA1NDI3MzZlLTE0LDIzLjk5MjA5ODggMjMuOTk5MDAwNywwIDUzLjYwMzk2ODUsMCBaIE0xMjIuODMxODksMTkxLjc3OTIyNSBDMTA4LjEzMDY1OCwxOTEuNzc5MjI1IDk2LjIxMjI1MTEsMjAzLjY5NDY2IDk2LjIxMjI1MTEsMjE4LjM5MzE0MSBDOTYuMjEyMjUxMSwyMzMuMDkxNjIyIDEwOC4xMzA2NTgsMjQ1LjAwNzA1NyAxMjIuODMxODksMjQ1LjAwNzA1NyBDMTM3LjUzNDAzOCwyNDUuMDA3MDU3IDE0OS40NTI0NDYsMjMzLjA5MTYyMiAxNDkuNDUyNDQ2LDIxOC4zOTMxNDEgQzE0OS40NTI0NDYsMjAzLjY5NDY2IDEzNy41MzQwMzgsMTkxLjc3OTIyNSAxMjIuODMxODksMTkxLjc3OTIyNSBaIE0xMjIuODMxODksMTA2Ljg2Nzg5OSBDMTA4LjEzMDY1OCwxMDYuODY3ODk5IDk2LjIxMjI1MTEsMTE4Ljc4MzMzMyA5Ni4yMTIyNTExLDEzMy40ODE4MTQgQzk2LjIxMjI1MTEsMTQ4LjE3OTM4IDEwOC4xMzA2NTgsMTYwLjA5NDgxNCAxMjIuODMxODksMTYwLjA5NDgxNCBDMTM3LjUzNDAzOCwxNjAuMDk0ODE0IDE0OS40NTI0NDYsMTQ4LjE3OTM4IDE0OS40NTI0NDYsMTMzLjQ4MTgxNCBDMTQ5LjQ1MjQ0NiwxMTguNzgzMzMzIDEzNy41MzQwMzgsMTA2Ljg2Nzg5OSAxMjIuODMxODksMTA2Ljg2Nzg5OSBaIE0yMTguMzgzNDg0LDEwNi44Njc4OTkgQzIwMy42ODEzMzYsMTA2Ljg2Nzg5OSAxOTEuNzYzODQ1LDExOC43ODMzMzMgMTkxLjc2Mzg0NSwxMzMuNDgxODE0IEMxOTEuNzYzODQ1LDE0OC4xNzkzOCAyMDMuNjgxMzM2LDE2MC4wOTQ4MTQgMjE4LjM4MzQ4NCwxNjAuMDk0ODE0IEMyMzMuMDg1NjMyLDE2MC4wOTQ4MTQgMjQ1LjAwNDAzOSwxNDguMTc5MzggMjQ1LjAwNDAzOSwxMzMuNDgxODE0IEMyNDUuMDA0MDM5LDExOC43ODMzMzMgMjMzLjA4NTYzMiwxMDYuODY3ODk5IDIxOC4zODM0ODQsMTA2Ljg2Nzg5OSBaIE0yMzMuNTQ0MDYxLDEyMi4yNzY0MzIgQzIzNS42Mzg3MzksMTI0LjM2NjAwOCAyMzUuNjk2NDY2LDEyNy43MjM0MzYgMjMzLjcxNDQ5NCwxMjkuODgxNzE3IEwyMzMuNTU0MTQsMTMwLjA1MDI3NiBMMjE3LjI0NDc4OSwxNDYuMzk0OTUgQzIxNS4xNjY2MDQsMTQ4LjQ3ODExMyAyMTEuODMwMzMsMTQ4LjU0NzczNSAyMDkuNjY3ODQ1LDE0Ni41OTI4MjMgTDIwOS40OTU1NzksMTQ2LjQyOTc2MSBMMjAxLjUxMDg3OSwxMzguNTY5ODA3IEMxOTkuMzQ3NDc4LDEzNi40Mzk5MjQgMTk5LjMxOTk4OCwxMzIuOTU5NzQxIDIwMS40NTA0MDMsMTMwLjc5Njg4IEMyMDMuNTI2NzU1LDEyOC42ODg5ODMgMjA2Ljg4NDEwNCwxMjguNjA5Mjg0IDIwOS4wNTY2NjgsMTMwLjU3NzAyMSBMMjA5LjIyNTI2OSwxMzAuNzM3MzM0IEwyMTMuMzE3NDk2LDEzNC43NjQ0MTYgTDIyNS43NjkxOTQsMTIyLjI4NjUwOSBDMjI3LjkxMzM1MywxMjAuMTM2NDczIDIzMS4zOTQ0MDQsMTIwLjEzMjgwOCAyMzMuNTQ0MDYxLDEyMi4yNzY0MzIgWiBNMTM3LjU1NDE5NywxMjIuMTk1OTA5IEMxMzkuNjQ4ODc1LDEyNC4yODU0ODQgMTM5LjcwNjYwMywxMjcuNjQyOTEzIDEzNy43MjQ2MywxMjkuODAyMTEgTDEzNy41NjQyNzcsMTI5Ljk2OTc1MiBMMTIxLjI1NDkyNiwxNDYuMzE0NDI3IEMxMTkuMTc2NzQxLDE0OC4zOTc1OSAxMTUuODQwNDY3LDE0OC40NjcyMTIgMTEzLjY3Nzk4MiwxNDYuNTEyMyBMMTEzLjUwNTcxNiwxNDYuMzQ5MjM4IEwxMDUuNTIxMDE1LDEzOC40ODkyODMgQzEwMy4zNTc2MTQsMTM2LjM1OTQwMSAxMDMuMzMwMTI1LDEzMi44NzkyMTggMTA1LjQ2MDUzOSwxMzAuNzE2MzU2IEMxMDcuNTM1OTc1LDEyOC42MDg0NTkgMTEwLjg5NDI0MSwxMjguNTI4NzYxIDExMy4wNjY4MDUsMTMwLjQ5NzQxNCBMMTEzLjIzNTQwNSwxMzAuNjU2ODExIEwxMTcuMzI3NjMzLDEzNC42ODM4OTMgTDEyOS43NzkzMzEsMTIyLjIwNTk4NiBDMTMxLjkyMzQ5LDEyMC4wNTY4NjYgMTM1LjQwNDU0MSwxMjAuMDUyMjg1IDEzNy41NTQxOTcsMTIyLjE5NTkwOSBaIE01My42MDM5Njg1LDEwLjk5Mjk0MzMgQzMwLjA3MjI4NDUsMTAuOTkyOTQzMyAxMC45OTU2ODU4LDMwLjA2Mzg2NzkgMTAuOTk1Njg1OCw1My41OTA1OTg3IEMxMC45OTU2ODU4LDc3LjExNjQxMzYgMzAuMDcyMjg0NSw5Ni4xODgyNTQyIDUzLjYwMzk2ODUsOTYuMTg4MjU0MiBDNzcuMTM1NjUyNSw5Ni4xODgyNTQyIDk2LjIxMjI1MTEsNzcuMTE2NDEzNiA5Ni4yMTIyNTExLDUzLjU5MDU5ODcgQzk2LjIxMjI1MTEsMzAuMDYzODY3OSA3Ny4xMzU2NTI1LDEwLjk5Mjk0MzMgNTMuNjAzOTY4NSwxMC45OTI5NDMzIFogTTQ5LjE3MDU5OTYsMjguMTMwMzkyMyBDNTguMTM0ODMyNSwzMy41MTYwMTg1IDY2Ljk3ODExMjgsMzkuMDg2NjkyNSA3NS43MDEzNTY5LDQ0Ljg0MTQ5ODQgQzgzLjAwODkwNjQsNDkuNjYxOTA0IDgyLjk5MDU4MDMsNTguNDA0MDQyMiA3NS42MDE0Nzk0LDYzLjIzNTQ0MDggQzY2LjcyMjQ2MzEsNjkuMDQ1MjExMyA1Ny43MDIzMzU1LDc0LjYxNTg4NTQgNDguNTQyOTI5Miw3OS45NDc0NjI5IEM0MS4wODc4NTQyLDg0LjI4NjkyNzMgMzIuNzQzMDQ0OSw3OS4yOTcwNDcxIDMyLjU0MDU0MSw3MC42MDM0NjExIEMzMi40MTA0MjU0LDY1LjAwMDcyNDMgMzIuNTE2NzE3MSw1OS4zOTI0OTEgMzIuNTA5Mzg2Niw1My43ODYwODk5IEMzMi41MDI5NzI1LDQ4LjMzMTc1NzkgMzIuMzk1NzY0NSw0Mi44NzQ2Nzc2IDMyLjUyNzcxMjcsMzcuNDIzMDkzOCBDMzIuNzUwMzc1NCwyOC4xNzUyODAyIDQxLjI2Mzc4NTEsMjMuMzU2NzA2NyA0OS4xNzA1OTk2LDI4LjEzMDM5MjMgWiBNNDMuMjYxMzM0NywzNy4wMDE2OTc2IEw0My4yNjEzMzQ3LDQwLjg3MDI5NzYgQzQzLjI2MDQxODQsNDIuNzg1ODE4IDQzLjI2MDQxODQsNDQuNjc1Njg4MSA0My4yNTk1MDIxLDQ2LjU0NDQ4ODUgTDQzLjI1ODU4NTgsNTAuMjU0NjA2OSBMNDMuMjU4NTg1OCw1NS43MzU1MDUyIEM0My4yNTk1MDIxLDU5Ljk2NTk1NjIgNDMuMjYxMzM0Nyw2NC4xMjk1MzM1IDQzLjI2ODY2NTIsNjguMjkzMTEwOCBDNDMuMjcyMzMwNCw3MC4yNTI2MDMgNDQuMjkyMTgwMyw3MC4xNzI5MDQxIDQ1LjYxMTY2MjYsNjkuMzU1NzYyIEM1My4yMTcwMTIsNjQuNjQxNjIxNSA2MC44MjYwMjY2LDU5LjkzMjk3NzQgNjguNDM4NzA2NCw1NS4yMjg5MTM3IEM2OS42OTY3OTYxLDU0LjQ1Mjk5NTEgNjkuNzMyNTMyMSw1My42NDIyNjU2IDY4LjQ5ODI2NjQsNTIuODYzNTk4OCBDNjAuMzQ0OTY1Myw0Ny43MjUzMTM4IDUyLjE4MDY2ODYsNDIuNjA0NDM0NCA0My4yNjEzMzQ3LDM3LjAwMTY5NzYgWiIvPiYjeGE7CQkJCTxwYXRoIGZpbGw9IiM4NUIzREYiIGQ9Ik0xMzMuMjI3MTIsMjIzLjg3OTA3OCBDMTM2LjI2Mjg0NiwyMjMuODc5MDc4IDEzOC43MjQ5NjMsMjIxLjQxODQ5IDEzOC43MjQ5NjMsMjE4LjM4MjYwNiBDMTM4LjcyNDk2MywyMTUuMzQ3NjM4IDEzNi4yNjI4NDYsMjEyLjg4NjEzNCAxMzMuMjI3MTIsMjEyLjg4NjEzNCBDMTMwLjE5MTM5NCwyMTIuODg2MTM0IDEyNy43MjkyNzcsMjE1LjM0NzYzOCAxMjcuNzI5Mjc3LDIxOC4zODI2MDYgQzEyNy43MjkyNzcsMjIxLjQxODQ5IDEzMC4xOTEzOTQsMjIzLjg3OTA3OCAxMzMuMjI3MTIsMjIzLjg3OTA3OCIvPiYjeGE7CQkJCTxwYXRoIGZpbGw9IiM4NUIzREYiIGQ9Ik0xMTIuMTc4OTAzLDIyMy44NzkwNzggQzExNS4yMTQ2MjksMjIzLjg3OTA3OCAxMTcuNjc2NzQ2LDIyMS40MTg0OSAxMTcuNjc2NzQ2LDIxOC4zODI2MDYgQzExNy42NzY3NDYsMjE1LjM0NzYzOCAxMTUuMjE0NjI5LDIxMi44ODYxMzQgMTEyLjE3ODkwMywyMTIuODg2MTM0IEMxMDkuMTQzMTc4LDIxMi44ODYxMzQgMTA2LjY4MTA2LDIxNS4zNDc2MzggMTA2LjY4MTA2LDIxOC4zODI2MDYgQzEwNi42ODEwNiwyMjEuNDE4NDkgMTA5LjE0MzE3OCwyMjMuODc5MDc4IDExMi4xNzg5MDMsMjIzLjg3OTA3OCIvPiYjeGE7CQkJCTxwYXRoIGZpbGw9IiM4NUIzREYiIGQ9Ik0yMTguMzgzNzU5LDI0NS4wMDcwNTcgQzIwMy42ODE2MSwyNDUuMDA3MDU3IDE5MS43NjQxMiwyMzMuMDkxNjIyIDE5MS43NjQxMiwyMTguMzkzMTQxIEMxOTEuNzY0MTIsMjAzLjY5NDY2IDIwMy42ODE2MSwxOTEuNzc5MjI1IDIxOC4zODM3NTksMTkxLjc3OTIyNSBDMjMzLjA4NDk5MSwxOTEuNzc5MjI1IDI0NS4wMDQzMTQsMjAzLjY5NDY2IDI0NS4wMDQzMTQsMjE4LjM5MzE0MSBDMjQ1LjAwNDMxNCwyMzMuMDkxNjIyIDIzMy4wODQ5OTEsMjQ1LjAwNzA1NyAyMTguMzgzNzU5LDI0NS4wMDcwNTcgTTIxOC4zODM3NTksMTgwLjc4NjI4MiBDMTk5LjQ3NzU5MywxODAuNzg2MjgyIDE4My44MzM0ODEsMTk0LjczMzU3OSAxODEuMTcyNTI1LDIxMi44OTY2NjkgTDE3NS4wMjA0MzksMjEyLjg5NjY2OSBDMTcyLjMzNDc0MywyMTIuODk2NjY5IDE3MC4xNTU3NjQsMjE1LjM1ODE3MiAxNzAuMTU1NzY0LDIxOC4zOTMxNDEgQzE3MC4xNTU3NjQsMjIxLjQyOTAyNSAxNzIuMzM0NzQzLDIyMy44ODk2MTMgMTc1LjAyMDQzOSwyMjMuODg5NjEzIEwxODEuMTcyNTI1LDIyMy44ODk2MTMgQzE4My44MzM0ODEsMjQyLjA1MjcwMyAxOTkuNDc3NTkzLDI1NiAyMTguMzgzNzU5LDI1NiBDMjM5LjE1ODI3NSwyNTYgMjU2LDIzOS4xNjI0NzUgMjU2LDIxOC4zOTMxNDEgQzI1NiwxOTcuNjIzODA3IDIzOS4xNTgyNzUsMTgwLjc4NjI4MiAyMTguMzgzNzU5LDE4MC43ODYyODIiLz4mI3hhOyAgICA8L2c+JiN4YTs8L3N2Zz4=;" vertex="1" parent="1">
          <mxGeometry x="770" y="460" width="64" height="64" as="geometry" />
        </mxCell>
        <mxCell id="qcm8bVL3Bub1XYBkVCOA-23" style="edgeStyle=orthogonalEdgeStyle;rounded=0;orthogonalLoop=1;jettySize=auto;html=1;entryX=1;entryY=0.25;entryDx=0;entryDy=0;" edge="1" parent="1" source="qcm8bVL3Bub1XYBkVCOA-22" target="qcm8bVL3Bub1XYBkVCOA-4">
          <mxGeometry relative="1" as="geometry" />
        </mxCell>
        <mxCell id="qcm8bVL3Bub1XYBkVCOA-24" style="edgeStyle=orthogonalEdgeStyle;rounded=0;orthogonalLoop=1;jettySize=auto;html=1;entryX=1;entryY=0.25;entryDx=0;entryDy=0;" edge="1" parent="1" source="qcm8bVL3Bub1XYBkVCOA-22" target="G6xe0df5_kS4qvGH7aIE-3">
          <mxGeometry relative="1" as="geometry">
            <Array as="points">
              <mxPoint x="870" y="640" />
              <mxPoint x="870" y="166" />
            </Array>
          </mxGeometry>
        </mxCell>
        <mxCell id="qcm8bVL3Bub1XYBkVCOA-22" value="" style="shape=image;verticalLabelPosition=bottom;labelBackgroundColor=default;verticalAlign=top;aspect=fixed;imageAspect=0;image=data:image/svg+xml,PHN2ZyB4bWxuczp4bGluaz0iaHR0cDovL3d3dy53My5vcmcvMTk5OS94bGluayIgeG1sbnM9Imh0dHA6Ly93d3cudzMub3JnLzIwMDAvc3ZnIiBwcmVzZXJ2ZUFzcGVjdFJhdGlvPSJ4TWlkWU1pZCIgdmVyc2lvbj0iMS4xIiB2aWV3Qm94PSI3LjEwNTQyNzM1NzYwMTAwMmUtMTQgMCAyNTYgMjU2IiBoZWlnaHQ9IjI1NiIgd2lkdGg9IjI1NiI+JiN4YTsgICAgPHRpdGxlPkdpdEh1YiBBY3Rpb25zPC90aXRsZT4mI3hhOyAgICA8Zz4mI3hhOwkJCQk8cGF0aCBmaWxsPSIjNEE3RUJGIiBkPSJNNTMuNjAzOTY4NSwwIEM4My4yMDgwMiwwIDEwNy4yMDc5MzcsMjMuOTkyMDk4OCAxMDcuMjA3OTM3LDUzLjU5MDU5ODcgQzEwNy4yMDc5MzcsODIuNjgwNjc1IDg0LjAxODk1MTgsMTA2LjM0MDIzNyA1NS4xMTQ5NTksMTA3LjE0MjcyMiBDNTUuMTE0OTU5LDEwOS42MDQyMjkgNTUuMjIzNjY1OCwxMTQuMjU0MzY5IDU2LjYxNjQ1MjcsMTE3LjA2MjE1IEM1OC41NDg5NDQ1LDEyMC45NTY0IDcwLjE0MDU2MzcsMTI4LjIwNzAzNCA4MS41MDgyNzAyLDEyOC4yMDcwMzQgTDgxLjUwODI3MDIsMTI4LjIwNzAzNCBMODUuNTkyMjUxMiwxMjguMjA3MDM0IEM4OC4xNTg4Mjc1LDEwOS45MzU4NDYgMTAzLjg0ODc1NSw5NS44NzQ5NTUzIDEyMi44MzE4OSw5NS44NzQ5NTUzIEMxNDEuNzM4MDU2LDk1Ljg3NDk1NTMgMTU3LjM4MjE2OCwxMDkuODIxMzM2IDE2MC4wNDMxMjQsMTI3Ljk4NDQyNyBMMTYwLjA0MzEyNCwxMjcuOTg0NDI3IEwxODEuMTcyMjUsMTI3Ljk4NDQyNyBDMTgzLjgzNDEyMywxMDkuODIxMzM2IDE5OS40NzczMTgsOTUuODc0OTU1MyAyMTguMzgzNDg0LDk1Ljg3NDk1NTMgQzIzOS4xNTgsOTUuODc0OTU1MyAyNTUuOTk5NzI1LDExMi43MTE1NjQgMjU1Ljk5OTcyNSwxMzMuNDgxODE0IEMyNTUuOTk5NzI1LDE1NC4yNTExNDkgMjM5LjE1OCwxNzEuMDg3NzU3IDIxOC4zODM0ODQsMTcxLjA4Nzc1NyBDMTk5LjQ3NzMxOCwxNzEuMDg3NzU3IDE4My44MzMyMDYsMTU3LjE0MDQ2MSAxODEuMTcyMjUsMTM4Ljk3NzM3IEwxODEuMTcyMjUsMTM4Ljk3NzM3IEwxNjAuMDQ0MDQsMTM4Ljk3NzM3IEMxNTcuMzgzMDg0LDE1Ny4xNDA0NjEgMTQxLjczODk3MiwxNzEuMDg3NzU3IDEyMi44MzE4OSwxNzEuMDg3NzU3IEMxMDMuOTYxNDYxLDE3MS4wODc3NTcgODguMzM4NDIzNywxNTcuMTk0NTA5IDg1LjYzMzQ4NSwxMzkuMDgwODg3IEw4NS42MzM0ODUsMTM5LjA4MDg4NyBMODEuMTE3OTIzNCwxMzkuMjE1NTUgQzczLjY4MzAwNzEsMTM5LjE1OTY3IDY1LjgyODQ3MjMsMTM3LjE3NDI5MyA1OS41MTk2OTc2LDEzMi44ODc5NjIgQzU3Ljc5OTc4OSwxMzEuNzE5MDQ1IDU2LjEwNTQ4NywxMzAuNDkwODggNTQuMzM3OTMwNSwxMjkuMzI3NDYgTDU0LjMzNzkzMDUsMTI5LjMyNzQ2IEw1NC4zMzc0MTc0LDEzMS43NjkyODQgQzU0LjMyNzc3NjcsMTMyLjU1ODcxNyA1NC4xODUzODE5LDE0NC40MjYxOCA1NC4xNzM5MzcxLDE1Ny42MDI0NzEgTDU0LjE3MzU1MzQsMTYwLjM5MjM4OCBDNTQuMTc4ODk3NCwxNjkuMDMzNDMgNTQuMjQ3MjE2MSwxNzcuOTM3MDk0IDU0LjQ1MDYzNjMsMTg0LjQzMTM1OSBDNTQuODk2ODc3OSwxOTguNjc4MjEzIDY2LjQ4NTQxNDQsMjEwLjE3NjgzMiA3OS4yNzMzOTcxLDIxMi44NjgyNzEgQzgwLjkzNTU3ODIsMjEzLjIxNzI5NyA4My43OTM1NDAyLDIxMy4yNjIxODUgODUuNTk0MDgzOCwyMTMuMTA2NDUxIEM4OC4xNjUyNDE3LDE5NC44NDE2NzYgMTAzLjg1MzMzNiwxODAuNzg2MjgyIDEyMi44MzE4OSwxODAuNzg2MjgyIEMxNDMuNjA2NDA2LDE4MC43ODYyODIgMTYwLjQ0ODEzMSwxOTcuNjIzODA3IDE2MC40NDgxMzEsMjE4LjM5MzE0MSBDMTYwLjQ0ODEzMSwyMzkuMTYyNDc1IDE0My42MDY0MDYsMjU2IDEyMi44MzE4OSwyNTYgQzEwNC4wNjMxNzEsMjU2IDg4LjUwODg1NjksMjQyLjI1NjA3MyA4NS42NzkzMDA0LDIyNC4yODYyNzUgTDg1LjY3OTMwMDQsMjI0LjI4NjI3NSBMODIuNDI1NDkzNywyMjQuMjg2Mjc1IEM1Ny45ODk0MTQ1LDIyMi45NTI0NjQgNDIuNzk3MDQxOSwyMDAuNTM5Njg1IDQzLjA2MTg1NDcsMTgyLjM2Mjg1MyBDNDMuMzk2MzA2OCwxNTkuNDg1NjIyIDQzLjE0NDMyMjMsMTM2LjU5OTIzIDQzLjE0MDY1NzEsMTEzLjcxNjUwMiBMNDMuMTQwNjU3MSwxMTMuNzE2NTAyIEw0My4xNDA2NTcxLDEwNi4xNTI0NDEgQzE4LjU0NjA1NjgsMTAxLjI4NjIzMiA3LjEwNTQyNzM2ZS0xNCw3OS42MDYzMTUyIDcuMTA1NDI3MzZlLTE0LDUzLjU5MDU5ODcgQzcuMTA1NDI3MzZlLTE0LDIzLjk5MjA5ODggMjMuOTk5MDAwNywwIDUzLjYwMzk2ODUsMCBaIE0xMjIuODMxODksMTkxLjc3OTIyNSBDMTA4LjEzMDY1OCwxOTEuNzc5MjI1IDk2LjIxMjI1MTEsMjAzLjY5NDY2IDk2LjIxMjI1MTEsMjE4LjM5MzE0MSBDOTYuMjEyMjUxMSwyMzMuMDkxNjIyIDEwOC4xMzA2NTgsMjQ1LjAwNzA1NyAxMjIuODMxODksMjQ1LjAwNzA1NyBDMTM3LjUzNDAzOCwyNDUuMDA3MDU3IDE0OS40NTI0NDYsMjMzLjA5MTYyMiAxNDkuNDUyNDQ2LDIxOC4zOTMxNDEgQzE0OS40NTI0NDYsMjAzLjY5NDY2IDEzNy41MzQwMzgsMTkxLjc3OTIyNSAxMjIuODMxODksMTkxLjc3OTIyNSBaIE0xMjIuODMxODksMTA2Ljg2Nzg5OSBDMTA4LjEzMDY1OCwxMDYuODY3ODk5IDk2LjIxMjI1MTEsMTE4Ljc4MzMzMyA5Ni4yMTIyNTExLDEzMy40ODE4MTQgQzk2LjIxMjI1MTEsMTQ4LjE3OTM4IDEwOC4xMzA2NTgsMTYwLjA5NDgxNCAxMjIuODMxODksMTYwLjA5NDgxNCBDMTM3LjUzNDAzOCwxNjAuMDk0ODE0IDE0OS40NTI0NDYsMTQ4LjE3OTM4IDE0OS40NTI0NDYsMTMzLjQ4MTgxNCBDMTQ5LjQ1MjQ0NiwxMTguNzgzMzMzIDEzNy41MzQwMzgsMTA2Ljg2Nzg5OSAxMjIuODMxODksMTA2Ljg2Nzg5OSBaIE0yMTguMzgzNDg0LDEwNi44Njc4OTkgQzIwMy42ODEzMzYsMTA2Ljg2Nzg5OSAxOTEuNzYzODQ1LDExOC43ODMzMzMgMTkxLjc2Mzg0NSwxMzMuNDgxODE0IEMxOTEuNzYzODQ1LDE0OC4xNzkzOCAyMDMuNjgxMzM2LDE2MC4wOTQ4MTQgMjE4LjM4MzQ4NCwxNjAuMDk0ODE0IEMyMzMuMDg1NjMyLDE2MC4wOTQ4MTQgMjQ1LjAwNDAzOSwxNDguMTc5MzggMjQ1LjAwNDAzOSwxMzMuNDgxODE0IEMyNDUuMDA0MDM5LDExOC43ODMzMzMgMjMzLjA4NTYzMiwxMDYuODY3ODk5IDIxOC4zODM0ODQsMTA2Ljg2Nzg5OSBaIE0yMzMuNTQ0MDYxLDEyMi4yNzY0MzIgQzIzNS42Mzg3MzksMTI0LjM2NjAwOCAyMzUuNjk2NDY2LDEyNy43MjM0MzYgMjMzLjcxNDQ5NCwxMjkuODgxNzE3IEwyMzMuNTU0MTQsMTMwLjA1MDI3NiBMMjE3LjI0NDc4OSwxNDYuMzk0OTUgQzIxNS4xNjY2MDQsMTQ4LjQ3ODExMyAyMTEuODMwMzMsMTQ4LjU0NzczNSAyMDkuNjY3ODQ1LDE0Ni41OTI4MjMgTDIwOS40OTU1NzksMTQ2LjQyOTc2MSBMMjAxLjUxMDg3OSwxMzguNTY5ODA3IEMxOTkuMzQ3NDc4LDEzNi40Mzk5MjQgMTk5LjMxOTk4OCwxMzIuOTU5NzQxIDIwMS40NTA0MDMsMTMwLjc5Njg4IEMyMDMuNTI2NzU1LDEyOC42ODg5ODMgMjA2Ljg4NDEwNCwxMjguNjA5Mjg0IDIwOS4wNTY2NjgsMTMwLjU3NzAyMSBMMjA5LjIyNTI2OSwxMzAuNzM3MzM0IEwyMTMuMzE3NDk2LDEzNC43NjQ0MTYgTDIyNS43NjkxOTQsMTIyLjI4NjUwOSBDMjI3LjkxMzM1MywxMjAuMTM2NDczIDIzMS4zOTQ0MDQsMTIwLjEzMjgwOCAyMzMuNTQ0MDYxLDEyMi4yNzY0MzIgWiBNMTM3LjU1NDE5NywxMjIuMTk1OTA5IEMxMzkuNjQ4ODc1LDEyNC4yODU0ODQgMTM5LjcwNjYwMywxMjcuNjQyOTEzIDEzNy43MjQ2MywxMjkuODAyMTEgTDEzNy41NjQyNzcsMTI5Ljk2OTc1MiBMMTIxLjI1NDkyNiwxNDYuMzE0NDI3IEMxMTkuMTc2NzQxLDE0OC4zOTc1OSAxMTUuODQwNDY3LDE0OC40NjcyMTIgMTEzLjY3Nzk4MiwxNDYuNTEyMyBMMTEzLjUwNTcxNiwxNDYuMzQ5MjM4IEwxMDUuNTIxMDE1LDEzOC40ODkyODMgQzEwMy4zNTc2MTQsMTM2LjM1OTQwMSAxMDMuMzMwMTI1LDEzMi44NzkyMTggMTA1LjQ2MDUzOSwxMzAuNzE2MzU2IEMxMDcuNTM1OTc1LDEyOC42MDg0NTkgMTEwLjg5NDI0MSwxMjguNTI4NzYxIDExMy4wNjY4MDUsMTMwLjQ5NzQxNCBMMTEzLjIzNTQwNSwxMzAuNjU2ODExIEwxMTcuMzI3NjMzLDEzNC42ODM4OTMgTDEyOS43NzkzMzEsMTIyLjIwNTk4NiBDMTMxLjkyMzQ5LDEyMC4wNTY4NjYgMTM1LjQwNDU0MSwxMjAuMDUyMjg1IDEzNy41NTQxOTcsMTIyLjE5NTkwOSBaIE01My42MDM5Njg1LDEwLjk5Mjk0MzMgQzMwLjA3MjI4NDUsMTAuOTkyOTQzMyAxMC45OTU2ODU4LDMwLjA2Mzg2NzkgMTAuOTk1Njg1OCw1My41OTA1OTg3IEMxMC45OTU2ODU4LDc3LjExNjQxMzYgMzAuMDcyMjg0NSw5Ni4xODgyNTQyIDUzLjYwMzk2ODUsOTYuMTg4MjU0MiBDNzcuMTM1NjUyNSw5Ni4xODgyNTQyIDk2LjIxMjI1MTEsNzcuMTE2NDEzNiA5Ni4yMTIyNTExLDUzLjU5MDU5ODcgQzk2LjIxMjI1MTEsMzAuMDYzODY3OSA3Ny4xMzU2NTI1LDEwLjk5Mjk0MzMgNTMuNjAzOTY4NSwxMC45OTI5NDMzIFogTTQ5LjE3MDU5OTYsMjguMTMwMzkyMyBDNTguMTM0ODMyNSwzMy41MTYwMTg1IDY2Ljk3ODExMjgsMzkuMDg2NjkyNSA3NS43MDEzNTY5LDQ0Ljg0MTQ5ODQgQzgzLjAwODkwNjQsNDkuNjYxOTA0IDgyLjk5MDU4MDMsNTguNDA0MDQyMiA3NS42MDE0Nzk0LDYzLjIzNTQ0MDggQzY2LjcyMjQ2MzEsNjkuMDQ1MjExMyA1Ny43MDIzMzU1LDc0LjYxNTg4NTQgNDguNTQyOTI5Miw3OS45NDc0NjI5IEM0MS4wODc4NTQyLDg0LjI4NjkyNzMgMzIuNzQzMDQ0OSw3OS4yOTcwNDcxIDMyLjU0MDU0MSw3MC42MDM0NjExIEMzMi40MTA0MjU0LDY1LjAwMDcyNDMgMzIuNTE2NzE3MSw1OS4zOTI0OTEgMzIuNTA5Mzg2Niw1My43ODYwODk5IEMzMi41MDI5NzI1LDQ4LjMzMTc1NzkgMzIuMzk1NzY0NSw0Mi44NzQ2Nzc2IDMyLjUyNzcxMjcsMzcuNDIzMDkzOCBDMzIuNzUwMzc1NCwyOC4xNzUyODAyIDQxLjI2Mzc4NTEsMjMuMzU2NzA2NyA0OS4xNzA1OTk2LDI4LjEzMDM5MjMgWiBNNDMuMjYxMzM0NywzNy4wMDE2OTc2IEw0My4yNjEzMzQ3LDQwLjg3MDI5NzYgQzQzLjI2MDQxODQsNDIuNzg1ODE4IDQzLjI2MDQxODQsNDQuNjc1Njg4MSA0My4yNTk1MDIxLDQ2LjU0NDQ4ODUgTDQzLjI1ODU4NTgsNTAuMjU0NjA2OSBMNDMuMjU4NTg1OCw1NS43MzU1MDUyIEM0My4yNTk1MDIxLDU5Ljk2NTk1NjIgNDMuMjYxMzM0Nyw2NC4xMjk1MzM1IDQzLjI2ODY2NTIsNjguMjkzMTEwOCBDNDMuMjcyMzMwNCw3MC4yNTI2MDMgNDQuMjkyMTgwMyw3MC4xNzI5MDQxIDQ1LjYxMTY2MjYsNjkuMzU1NzYyIEM1My4yMTcwMTIsNjQuNjQxNjIxNSA2MC44MjYwMjY2LDU5LjkzMjk3NzQgNjguNDM4NzA2NCw1NS4yMjg5MTM3IEM2OS42OTY3OTYxLDU0LjQ1Mjk5NTEgNjkuNzMyNTMyMSw1My42NDIyNjU2IDY4LjQ5ODI2NjQsNTIuODYzNTk4OCBDNjAuMzQ0OTY1Myw0Ny43MjUzMTM4IDUyLjE4MDY2ODYsNDIuNjA0NDM0NCA0My4yNjEzMzQ3LDM3LjAwMTY5NzYgWiIvPiYjeGE7CQkJCTxwYXRoIGZpbGw9IiM4NUIzREYiIGQ9Ik0xMzMuMjI3MTIsMjIzLjg3OTA3OCBDMTM2LjI2Mjg0NiwyMjMuODc5MDc4IDEzOC43MjQ5NjMsMjIxLjQxODQ5IDEzOC43MjQ5NjMsMjE4LjM4MjYwNiBDMTM4LjcyNDk2MywyMTUuMzQ3NjM4IDEzNi4yNjI4NDYsMjEyLjg4NjEzNCAxMzMuMjI3MTIsMjEyLjg4NjEzNCBDMTMwLjE5MTM5NCwyMTIuODg2MTM0IDEyNy43MjkyNzcsMjE1LjM0NzYzOCAxMjcuNzI5Mjc3LDIxOC4zODI2MDYgQzEyNy43MjkyNzcsMjIxLjQxODQ5IDEzMC4xOTEzOTQsMjIzLjg3OTA3OCAxMzMuMjI3MTIsMjIzLjg3OTA3OCIvPiYjeGE7CQkJCTxwYXRoIGZpbGw9IiM4NUIzREYiIGQ9Ik0xMTIuMTc4OTAzLDIyMy44NzkwNzggQzExNS4yMTQ2MjksMjIzLjg3OTA3OCAxMTcuNjc2NzQ2LDIyMS40MTg0OSAxMTcuNjc2NzQ2LDIxOC4zODI2MDYgQzExNy42NzY3NDYsMjE1LjM0NzYzOCAxMTUuMjE0NjI5LDIxMi44ODYxMzQgMTEyLjE3ODkwMywyMTIuODg2MTM0IEMxMDkuMTQzMTc4LDIxMi44ODYxMzQgMTA2LjY4MTA2LDIxNS4zNDc2MzggMTA2LjY4MTA2LDIxOC4zODI2MDYgQzEwNi42ODEwNiwyMjEuNDE4NDkgMTA5LjE0MzE3OCwyMjMuODc5MDc4IDExMi4xNzg5MDMsMjIzLjg3OTA3OCIvPiYjeGE7CQkJCTxwYXRoIGZpbGw9IiM4NUIzREYiIGQ9Ik0yMTguMzgzNzU5LDI0NS4wMDcwNTcgQzIwMy42ODE2MSwyNDUuMDA3MDU3IDE5MS43NjQxMiwyMzMuMDkxNjIyIDE5MS43NjQxMiwyMTguMzkzMTQxIEMxOTEuNzY0MTIsMjAzLjY5NDY2IDIwMy42ODE2MSwxOTEuNzc5MjI1IDIxOC4zODM3NTksMTkxLjc3OTIyNSBDMjMzLjA4NDk5MSwxOTEuNzc5MjI1IDI0NS4wMDQzMTQsMjAzLjY5NDY2IDI0NS4wMDQzMTQsMjE4LjM5MzE0MSBDMjQ1LjAwNDMxNCwyMzMuMDkxNjIyIDIzMy4wODQ5OTEsMjQ1LjAwNzA1NyAyMTguMzgzNzU5LDI0NS4wMDcwNTcgTTIxOC4zODM3NTksMTgwLjc4NjI4MiBDMTk5LjQ3NzU5MywxODAuNzg2MjgyIDE4My44MzM0ODEsMTk0LjczMzU3OSAxODEuMTcyNTI1LDIxMi44OTY2NjkgTDE3NS4wMjA0MzksMjEyLjg5NjY2OSBDMTcyLjMzNDc0MywyMTIuODk2NjY5IDE3MC4xNTU3NjQsMjE1LjM1ODE3MiAxNzAuMTU1NzY0LDIxOC4zOTMxNDEgQzE3MC4xNTU3NjQsMjIxLjQyOTAyNSAxNzIuMzM0NzQzLDIyMy44ODk2MTMgMTc1LjAyMDQzOSwyMjMuODg5NjEzIEwxODEuMTcyNTI1LDIyMy44ODk2MTMgQzE4My44MzM0ODEsMjQyLjA1MjcwMyAxOTkuNDc3NTkzLDI1NiAyMTguMzgzNzU5LDI1NiBDMjM5LjE1ODI3NSwyNTYgMjU2LDIzOS4xNjI0NzUgMjU2LDIxOC4zOTMxNDEgQzI1NiwxOTcuNjIzODA3IDIzOS4xNTgyNzUsMTgwLjc4NjI4MiAyMTguMzgzNzU5LDE4MC43ODYyODIiLz4mI3hhOyAgICA8L2c+JiN4YTs8L3N2Zz4=;" vertex="1" parent="1">
          <mxGeometry x="768" y="608" width="64" height="64" as="geometry" />
        </mxCell>
      </root>
    </mxGraphModel>
  </diagram>
</mxfile>
